<?xml version="1.0" encoding="UTF-8"?>
<svg width="12px" height="11px" viewBox="0 0 12 11" version="1.1" xmlns="http://www.w3.org/2000/svg" xmlns:xlink="http://www.w3.org/1999/xlink">
    <!-- Generator: Sketch 62 (91390) - https://sketch.com -->
    <title>Shape</title>
    <desc>Created with Sketch.</desc>
    <g id="UI-Exploration-2" stroke="none" stroke-width="1" fill="none" fill-rule="evenodd">
        <g id="Writing-Copy-3" transform="translate(-856.000000, -1497.000000)" fill="#9D9B97">
            <g id="Group-3" transform="translate(775.000000, 1368.000000)">
                <path d="M86.4979722,129.228027 C86.7402312,128.950765 87.1613863,128.922389 87.4386486,129.164648 L87.4386486,129.164648 L92.7719819,133.824668 C92.8958205,133.932872 92.9692238,134.075457 92.9921721,134.224418 C92.9969805,134.259983 93,134.29631 93,134.333343 L92.9947143,134.242564 C92.9974897,134.264557 92.9991721,134.286663 92.9997616,134.308794 L93,134.333343 C93,134.341881 92.9998395,134.350383 92.9995213,134.358844 C92.9986099,134.371933 92.9975786,134.385261 92.9961494,134.398553 C92.994664,134.420884 92.9914882,134.442327 92.987318,134.463413 C92.9843735,134.471024 92.9823953,134.479731 92.9802408,134.488403 C92.9434878,134.648365 92.8484626,134.78512 92.7192904,134.87699 L87.4393569,139.501417 C87.1624369,139.744067 86.7412422,139.716286 86.498592,139.439366 C86.2559419,139.162446 86.2837231,138.741251 86.5606431,138.498601 L86.5606431,138.498601 L90.552,135 L81.6666667,135.000009 C81.3319486,135.000009 81.0548447,134.753334 81.0072284,134.431858 L81,134.333343 C81,133.965153 81.2984768,133.666676 81.6666667,133.666676 L81.6666667,133.666676 L90.564,133.666 L86.5613514,130.168704 C86.3118154,129.950671 86.2638774,129.587732 86.4333919,129.3152 Z" id="Shape" transform="translate(87.000000, 134.333342) rotate(-360.000000) translate(-87.000000, -134.333342) "></path>
            </g>
        </g>
    </g>
</svg>