<?xml version="1.0" encoding="UTF-8"?>
<svg width="1200px" height="630px" viewBox="0 0 1200 630" version="1.1" xmlns="http://www.w3.org/2000/svg" xmlns:xlink="http://www.w3.org/1999/xlink">
    <!-- Generator: Sketch 62 (91390) - https://sketch.com -->
    <title>Artboard</title>
    <desc>Created with Sketch.</desc>
    <defs>
        <path d="M12.6,0 L821.4,0 C828.358788,-1.27830859e-15 834,5.64121215 834,12.6 L834,512.4 C834,519.358788 828.358788,525 821.4,525 L12.6,525 C5.64121215,525 -3.11222174e-14,519.358788 0,512.4 L0,12.6 C-8.52205726e-16,5.64121215 5.64121215,2.61473043e-14 12.6,0 Z" id="path-1"></path>
        <filter x="-4.5%" y="-4.9%" width="109.0%" height="114.3%" filterUnits="objectBoundingBox" id="filter-2">
            <feOffset dx="0" dy="12" in="SourceAlpha" result="shadowOffsetOuter1"></feOffset>
            <feGaussianBlur stdDeviation="10.5" in="shadowOffsetOuter1" result="shadowBlurOuter1"></feGaussianBlur>
            <feColorMatrix values="0 0 0 0 0.4862149   0 0 0 0 0.4862149   0 0 0 0 0.4862149  0 0 0 0.2 0" type="matrix" in="shadowBlurOuter1"></feColorMatrix>
        </filter>
    </defs>
    <g id="Artboard" stroke="none" stroke-width="1" fill="none" fill-rule="evenodd">
        <rect fill="#FAF9F6" x="0" y="0" width="1200" height="630"></rect>
        <g id="Group-3" transform="translate(183.000000, 52.000000)">
            <g id="Shape-Copy-2">
                <use fill="black" fill-opacity="1" filter="url(#filter-2)" xlink:href="#path-1"></use>
                <use fill="#FFFFFF" fill-rule="evenodd" xlink:href="#path-1"></use>
            </g>
            <g id="Group-13" transform="translate(281.700000, 54.600000)" stroke="#F4F2EF" stroke-linecap="square" stroke-width="4.2">
                <line x1="1.05" y1="1.05" x2="1.05" y2="416.85" id="Line-2"></line>
                <line x1="94.5" y1="1.05" x2="94.5" y2="416.85" id="Line-2-Copy"></line>
                <line x1="187.95" y1="1.05" x2="187.95" y2="416.85" id="Line-2-Copy-2"></line>
                <line x1="281.4" y1="1.05" x2="281.4" y2="416.85" id="Line-2-Copy-3"></line>
                <line x1="374.85" y1="1.05" x2="374.85" y2="416.85" id="Line-2-Copy-4"></line>
                <line x1="468.3" y1="1.05" x2="468.3" y2="416.85" id="Line-2-Copy-5"></line>
            </g>
            <rect id="Rectangle" fill="#ECE3D4" transform="translate(515.850000, 355.950000) scale(-1, 1) rotate(90.000000) translate(-515.850000, -355.950000) " x="500.1" y="121.8" width="31.5" height="468.3" rx="8.4"></rect>
            <rect id="Rectangle" fill="#AC936D" transform="translate(468.600000, 355.950000) scale(-1, 1) rotate(90.000000) translate(-468.600000, -355.950000) " x="452.85" y="169.05" width="31.5" height="373.8" rx="8.4"></rect>
            <rect id="Rectangle-Copy-9" fill="#F4F2EF" transform="translate(515.850000, 229.950000) scale(-1, 1) rotate(90.000000) translate(-515.850000, -229.950000) " x="500.1" y="-4.2" width="31.5" height="468.3" rx="8.4"></rect>
            <rect id="Rectangle-Copy-10" fill="#E37A5A" transform="translate(515.850000, 229.950000) scale(-1, 1) rotate(90.000000) translate(-515.850000, -229.950000) " x="500.1" y="-4.2" width="31.5" height="468.3" rx="8.4"></rect>
            <rect id="Rectangle-Copy-11" fill="#BCD5EF" transform="translate(515.850000, 103.950000) scale(-1, 1) rotate(90.000000) translate(-515.850000, -103.950000) " x="500.1" y="-130.2" width="31.5" height="468.3" rx="8.4"></rect>
            <rect id="Rectangle-Copy-12" fill="#4478B3" transform="translate(422.400000, 103.950000) scale(-1, 1) rotate(90.000000) translate(-422.400000, -103.950000) " x="406.65" y="-36.75" width="31.5" height="281.4" rx="8.4"></rect>
            <rect id="Rectangle-Copy-2" fill="#D0E8D6" transform="translate(515.850000, 166.950000) scale(-1, 1) rotate(90.000000) translate(-515.850000, -166.950000) " x="500.1" y="-67.2" width="31.5" height="468.3" rx="8.4"></rect>
            <rect id="Rectangle-Copy-4" fill="#6AAF7D" transform="translate(468.600000, 166.950000) scale(-1, 1) rotate(90.000000) translate(-468.600000, -166.950000) " x="452.85" y="-19.95" width="31.5" height="373.8" rx="8.4"></rect>
            <g id="Group-12" transform="translate(281.650000, 277.200000)">
                <rect id="Rectangle-Copy-5" fill="#FAE1BE" transform="translate(234.200000, 15.750000) scale(-1, 1) rotate(90.000000) translate(-234.200000, -15.750000) " x="218.45" y="-218.4" width="31.5" height="468.3" rx="8.4"></rect>
                <rect id="Rectangle-Copy-6" fill="#E6A84C" transform="translate(186.950000, 15.750000) scale(-1, 1) rotate(90.000000) translate(-186.950000, -15.750000) " x="171.2" y="-171.15" width="31.5" height="373.8" rx="8.4"></rect>
            </g>
            <g id="Group-8" transform="translate(281.700000, 403.200000)">
                <rect id="Rectangle-Copy-7" fill="#ECE5FF" transform="translate(234.150000, 15.750000) scale(-1, 1) rotate(90.000000) translate(-234.150000, -15.750000) " x="218.4" y="-218.4" width="31.5" height="468.3" rx="8.4"></rect>
                <rect id="Rectangle-Copy-8" fill="#9272E8" transform="translate(47.250000, 15.750000) scale(-1, 1) rotate(90.000000) translate(-47.250000, -15.750000) " x="31.5" y="-31.5" width="31.5" height="94.5" rx="8.4"></rect>
            </g>
            <text id="Visual-Design" transform="translate(154.500000, 104.200000) scale(-1, -1) rotate(180.000000) translate(-154.500000, -104.200000) " font-family="Campton-Medium, Campton" font-size="25.2" font-weight="400" fill="#9D9B97">
                <tspan x="71.8564" y="113.2">Visual Design</tspan>
            </text>
            <text id="Copywriting" transform="translate(164.200000, 230.200000) scale(-1, -1) rotate(180.000000) translate(-164.200000, -230.200000) " font-family="Campton-Medium, Campton" font-size="25.2" font-weight="400" fill="#9D9B97">
                <tspan x="88.878" y="239.2">Copywriting</tspan>
            </text>
            <text id="Design-Ops" transform="translate(168.500000, 356.200000) scale(-1, -1) rotate(180.000000) translate(-168.500000, -356.200000) " font-family="Campton-Medium, Campton" font-size="25.2" font-weight="400" fill="#9D9B97">
                <tspan x="98.9424" y="365.2">Design Ops</tspan>
            </text>
            <text id="UX-Design" transform="translate(175.800000, 167.200000) scale(-1, -1) rotate(180.000000) translate(-175.800000, -167.200000) " font-family="Campton-Medium, Campton" font-size="25.2" font-weight="400" fill="#9D9B97">
                <tspan x="112.9764" y="176.2">UX Design</tspan>
            </text>
            <text id="UX-Research" transform="translate(161.700000, 293.200000) scale(-1, -1) rotate(180.000000) translate(-161.700000, -293.200000) " font-family="Campton-Medium, Campton" font-size="25.2" font-weight="400" fill="#9D9B97">
                <tspan x="84.0648" y="302.2">UX Research</tspan>
            </text>
            <text id="Code" transform="translate(205.500000, 419.200000) scale(-1, -1) rotate(180.000000) translate(-205.500000, -419.200000) " font-family="Campton-Medium, Campton" font-size="25.2" font-weight="400" fill="#9D9B97">
                <tspan x="173.3328" y="428.2">Code</tspan>
            </text>
            <g id="Group-2" transform="translate(515.850000, 232.050000) scale(-1, 1) rotate(90.000000) translate(-515.850000, -232.050000) translate(500.100000, -2.100000)"></g>
            <g id="Group" transform="translate(515.850000, 106.050000) scale(-1, 1) rotate(90.000000) translate(-515.850000, -106.050000) translate(500.100000, -128.100000)"></g>
            <g id="Group-4" transform="translate(515.850000, 169.050000) scale(-1, 1) rotate(90.000000) translate(-515.850000, -169.050000) translate(500.100000, -65.100000)"></g>
        </g>
    </g>
</svg>