<?xml version="1.0" encoding="UTF-8"?>
<svg width="45px" height="57px" viewBox="0 0 45 57" version="1.1" xmlns="http://www.w3.org/2000/svg" xmlns:xlink="http://www.w3.org/1999/xlink">
    <!-- Generator: Sketch 62 (91390) - https://sketch.com -->
    <title>Shape</title>
    <desc>Created with Sketch.</desc>
    <g id="UI-Exploration-2" stroke="none" stroke-width="1" fill="none" fill-rule="evenodd" stroke-linecap="round" stroke-linejoin="round">
        <g id="UX" transform="translate(-473.000000, -2982.000000)" stroke="#9D9B97" stroke-width="5.6">
            <g id="md-document-download" transform="translate(476.000000, 2985.000000)">
                <path d="M19.6,36.4 L19.6,19.6 M19.6,19 L11.2,27.4 M19.6,19 L28,27.4 M33.6,50.4 L5.6,50.4 C2.507204,50.4 0,47.89288 0,44.8 L0,5.6 C0,2.507204 2.507204,0 5.6,0 L21.24024,0 C21.9828,0 22.69512,0.295008 23.22012,0.820092 L38.37988,15.979908 C38.90488,16.504992 39.2,17.2172 39.2,17.959788 L39.2,44.8 C39.2,47.89288 36.69288,50.4 33.6,50.4 Z" id="Shape"></path>
            </g>
        </g>
    </g>
</svg>