<?xml version="1.0" encoding="UTF-8"?>
<svg width="50px" height="50px" viewBox="0 0 50 50" version="1.1" xmlns="http://www.w3.org/2000/svg" xmlns:xlink="http://www.w3.org/1999/xlink">
    <!-- Generator: Sketch 62 (91390) - https://sketch.com -->
    <title>Group 4</title>
    <desc>Created with Sketch.</desc>
    <g id="UI-Exploration-2" stroke="none" stroke-width="1" fill="none" fill-rule="evenodd">
        <g id="Create-Assessment-Copy-2" transform="translate(-855.000000, -453.000000)">
            <g id="Group-4" transform="translate(855.000000, 453.000000)">
                <rect id="Rectangle" fill="#F5C1B1" x="0" y="0" width="50" height="50" rx="25"></rect>
                <g id="md-template" transform="translate(13.000000, 13.000000)" stroke="#E37A5A" stroke-linecap="round" stroke-linejoin="round" stroke-width="2.5">
                    <path d="M0,1.5 C0,0.67158 0.67158,0 1.5,0 L22.5,0 C23.32845,0 24,0.67158 24,1.5 L24,4.5 C24,5.32842 23.32845,6 22.5,6 L1.5,6 C0.67158,6 0,5.32842 0,4.5 L0,1.5 Z" id="Path"></path>
                    <path d="M0,13.5 C0,12.67155 0.67158,12 1.5,12 L10.5,12 C11.32845,12 12,12.67155 12,13.5 L12,22.5 C12,23.32845 11.32845,24 10.5,24 L1.5,24 C0.67158,24 0,23.32845 0,22.5 L0,13.5 Z" id="Path"></path>
                    <path d="M18,13.5 C18,12.67155 18.67155,12 19.5,12 L22.5,12 C23.32845,12 24,12.67155 24,13.5 L24,22.5 C24,23.32845 23.32845,24 22.5,24 L19.5,24 C18.67155,24 18,23.32845 18,22.5 L18,13.5 Z" id="Path"></path>
                </g>
            </g>
        </g>
    </g>
</svg>