<?xml version="1.0" encoding="UTF-8"?>
<svg width="50px" height="50px" viewBox="0 0 50 50" version="1.1" xmlns="http://www.w3.org/2000/svg" xmlns:xlink="http://www.w3.org/1999/xlink">
    <!-- Generator: Sketch 62 (91390) - https://sketch.com -->
    <title>Group 8</title>
    <desc>Created with Sketch.</desc>
    <g id="Matt-Beynon" stroke="none" stroke-width="1" fill="none" fill-rule="evenodd">
        <g id="Create-Assessment-Copy" transform="translate(-255.000000, -242.000000)">
            <g id="Group-7" transform="translate(215.000000, 187.000000)">
                <g id="Group-8" transform="translate(40.000000, 55.000000)">
                    <g id="Group-3" fill="#BCD5EF">
                        <rect id="Rectangle" x="0" y="0" width="50" height="50" rx="25"></rect>
                    </g>
                    <g id="palette-24px" transform="translate(9.000000, 10.000000)">
                        <polygon id="Path" points="0 0 32 0 32 32 0 32"></polygon>
                        <path d="M15.4285714,28.5714286 C8.18685714,28.5714286 2.28571429,22.6702857 2.28571429,15.4285714 C2.28571429,8.18685714 8.18685714,2.28571429 15.4285714,2.28571429 C22.6702857,2.28571429 28.5714286,7.59542857 28.5714286,14.1142857 C28.5714286,18.4645714 25.036,22 20.6857143,22 L18.3594286,22 C17.9914286,22 17.7022857,22.2891429 17.7022857,22.6571429 C17.7022857,22.8148571 17.768,22.9594286 17.8731429,23.0908571 C18.412,23.7085714 18.7142857,24.484 18.7142857,25.2857143 C18.7142857,27.0994286 17.2422857,28.5714286 15.4285714,28.5714286 Z M15.4285714,4.91428571 C9.63257143,4.91428571 4.91428571,9.63257143 4.91428571,15.4285714 C4.91428571,21.2245714 9.63257143,25.9428571 15.4285714,25.9428571 C15.7965714,25.9428571 16.0857143,25.6537143 16.0857143,25.2857143 C16.0857143,25.0754286 15.9805714,24.9177143 15.9017143,24.8257143 C15.3628571,24.2211429 15.0737143,23.4457143 15.0737143,22.6571429 C15.0737143,20.8434286 16.5457143,19.3714286 18.3594286,19.3714286 L20.6857143,19.3714286 C23.5902857,19.3714286 25.9428571,17.0188571 25.9428571,14.1142857 C25.9428571,9.04114286 21.2245714,4.91428571 15.4285714,4.91428571 Z" id="Shape" fill="#4478B3" fill-rule="nonzero"></path>
                        <circle id="Oval" fill="#4478B3" fill-rule="nonzero" cx="9.14285714" cy="14.8571429" r="2.28571429"></circle>
                        <circle id="Oval" fill="#4478B3" fill-rule="nonzero" cx="12.5714286" cy="10.2857143" r="2.28571429"></circle>
                        <circle id="Oval" fill="#4478B3" fill-rule="nonzero" cx="18.3251232" cy="10.2857143" r="2.28571429"></circle>
                        <circle id="Oval" fill="#4478B3" fill-rule="nonzero" cx="21.7536946" cy="14.8571429" r="2.28571429"></circle>
                    </g>
                </g>
            </g>
        </g>
    </g>
</svg>