<?xml version="1.0" encoding="UTF-8"?>
<svg width="50px" height="50px" viewBox="0 0 50 50" version="1.1" xmlns="http://www.w3.org/2000/svg" xmlns:xlink="http://www.w3.org/1999/xlink">
    <!-- Generator: Sketch 62 (91390) - https://sketch.com -->
    <title>Group 5</title>
    <desc>Created with Sketch.</desc>
    <g id="UI-Exploration-2" stroke="none" stroke-width="1" fill="none" fill-rule="evenodd">
        <g id="Create-Assessment-Copy-2" transform="translate(-856.000000, -653.000000)">
            <g id="Group-5" transform="translate(856.000000, 653.000000)">
                <rect id="Rectangle" fill="#BCD5EF" x="0" y="0" width="50" height="50" rx="25"></rect>
                <g id="md-annotation" transform="translate(13.000000, 15.000000)" stroke="#4478B3" stroke-linecap="round" stroke-linejoin="round" stroke-width="2.5">
                    <path d="M5.33333333,5.33333333 L18.6666667,5.33333333 M5.33333333,10.6666667 L10.6666667,10.6666667 M12,21.3333333 L6.66666667,16 L2.66666667,16 C1.19390667,16 0,14.8061333 0,13.3333333 L0,2.66666667 C0,1.19390667 1.19390667,0 2.66666667,0 L21.3333333,0 C22.8061333,0 24,1.19390667 24,2.66666667 L24,13.3333333 C24,14.8061333 22.8061333,16 21.3333333,16 L17.3333333,16 L12,21.3333333 Z" id="Shape"></path>
                </g>
            </g>
        </g>
    </g>
</svg>